<svg width="684" height="172" viewBox="0 0 684 172" fill="none" xmlns="http://www.w3.org/2000/svg">
<path d="M10.296 131.092C2.288 131.092 -4.888 129.792 -11.232 127.192C-17.576 124.592 -22.672 120.744 -26.52 115.648C-30.264 110.552 -32.24 104.416 -32.448 97.24H-4.056C-3.64 101.296 -2.236 104.416 0.156003 106.6C2.548 108.68 5.668 109.72 9.516 109.72C13.468 109.72 16.588 108.836 18.876 107.068C21.164 105.196 22.308 102.648 22.308 99.424C22.308 96.72 21.372 94.484 19.5 92.716C17.732 90.948 15.496 89.492 12.792 88.348C10.192 87.204 6.448 85.904 1.56 84.448C-5.512 82.264 -11.284 80.08 -15.756 77.896C-20.228 75.712 -24.076 72.488 -27.3 68.224C-30.524 63.96 -32.136 58.396 -32.136 51.532C-32.136 41.34 -28.444 33.384 -21.06 27.664C-13.676 21.84 -4.056 18.928 7.8 18.928C19.864 18.928 29.588 21.84 36.972 27.664C44.356 33.384 48.308 41.392 48.828 51.688H19.968C19.76 48.152 18.46 45.396 16.068 43.42C13.676 41.34 10.608 40.3 6.864 40.3C3.64 40.3 1.04 41.184 -0.935997 42.952C-2.912 44.616 -3.9 47.06 -3.9 50.284C-3.9 53.82 -2.236 56.576 1.092 58.552C4.42 60.528 9.62 62.66 16.692 64.948C23.764 67.34 29.484 69.628 33.852 71.812C38.324 73.996 42.172 77.168 45.396 81.328C48.62 85.488 50.232 90.844 50.232 97.396C50.232 103.636 48.62 109.304 45.396 114.4C42.276 119.496 37.7 123.552 31.668 126.568C25.636 129.584 18.512 131.092 10.296 131.092ZM148.705 85.072C148.705 87.568 148.549 90.168 148.237 92.872H87.8646C88.2806 98.28 89.9966 102.44 93.0126 105.352C96.1326 108.16 99.9286 109.564 104.401 109.564C111.057 109.564 115.685 106.756 118.285 101.14H146.677C145.221 106.86 142.569 112.008 138.721 116.584C134.977 121.16 130.245 124.748 124.525 127.348C118.805 129.948 112.409 131.248 105.337 131.248C96.8086 131.248 89.2166 129.428 82.5606 125.788C75.9046 122.148 70.7046 116.948 66.9606 110.188C63.2166 103.428 61.3446 95.524 61.3446 86.476C61.3446 77.428 63.1646 69.524 66.8046 62.764C70.5486 56.004 75.7486 50.804 82.4046 47.164C89.0606 43.524 96.7046 41.704 105.337 41.704C113.761 41.704 121.249 43.472 127.801 47.008C134.353 50.544 139.449 55.588 143.089 62.14C146.833 68.692 148.705 76.336 148.705 85.072ZM121.405 78.052C121.405 73.476 119.845 69.836 116.725 67.132C113.605 64.428 109.705 63.076 105.025 63.076C100.553 63.076 96.7566 64.376 93.6366 66.976C90.6206 69.576 88.7486 73.268 88.0206 78.052H121.405ZM215.973 130L189.453 93.496V130H162.777V14.56H189.453V78.364L215.817 42.952H248.733L212.541 86.632L249.045 130H215.973ZM253.907 86.32C253.907 77.376 255.571 69.524 258.899 62.764C262.331 56.004 266.959 50.804 272.783 47.164C278.607 43.524 285.107 41.704 292.283 41.704C298.419 41.704 303.775 42.952 308.351 45.448C313.031 47.944 316.619 51.22 319.115 55.276V42.952H345.791V130H319.115V117.676C316.515 121.732 312.875 125.008 308.195 127.504C303.619 130 298.263 131.248 292.127 131.248C285.055 131.248 278.607 129.428 272.783 125.788C266.959 122.044 262.331 116.792 258.899 110.032C255.571 103.168 253.907 95.264 253.907 86.32ZM319.115 86.476C319.115 79.82 317.243 74.568 313.499 70.72C309.859 66.872 305.387 64.948 300.083 64.948C294.779 64.948 290.255 66.872 286.511 70.72C282.871 74.464 281.051 79.664 281.051 86.32C281.051 92.976 282.871 98.28 286.511 102.232C290.255 106.08 294.779 108.004 300.083 108.004C305.387 108.004 309.859 106.08 313.499 102.232C317.243 98.384 319.115 93.132 319.115 86.476ZM391.766 57.46C394.886 52.676 398.786 48.932 403.466 46.228C408.146 43.42 413.346 42.016 419.066 42.016V70.252H411.734C405.078 70.252 400.086 71.708 396.758 74.62C393.43 77.428 391.766 82.42 391.766 89.596V130H365.09V42.952H391.766V57.46ZM480.333 107.38V130H466.761C457.089 130 449.549 127.66 444.141 122.98C438.733 118.196 436.029 110.448 436.029 99.736V65.104H425.421V42.952H436.029V21.736H462.705V42.952H480.177V65.104H462.705V100.048C462.705 102.648 463.329 104.52 464.577 105.664C465.825 106.808 467.905 107.38 470.817 107.38H480.333ZM489.888 86.32C489.888 77.376 491.552 69.524 494.88 62.764C498.312 56.004 502.94 50.804 508.764 47.164C514.588 43.524 521.088 41.704 528.264 41.704C534.4 41.704 539.756 42.952 544.332 45.448C549.012 47.944 552.6 51.22 555.096 55.276V42.952H581.772V130H555.096V117.676C552.496 121.732 548.856 125.008 544.176 127.504C539.6 130 534.244 131.248 528.108 131.248C521.036 131.248 514.588 129.428 508.764 125.788C502.94 122.044 498.312 116.792 494.88 110.032C491.552 103.168 489.888 95.264 489.888 86.32ZM555.096 86.476C555.096 79.82 553.224 74.568 549.48 70.72C545.84 66.872 541.368 64.948 536.064 64.948C530.76 64.948 526.236 66.872 522.492 70.72C518.852 74.464 517.032 79.664 517.032 86.32C517.032 92.976 518.852 98.28 522.492 102.232C526.236 106.08 530.76 108.004 536.064 108.004C541.368 108.004 545.84 106.08 549.48 102.232C553.224 98.384 555.096 93.132 555.096 86.476ZM614.33 33.904C609.65 33.904 605.802 32.552 602.786 29.848C599.874 27.04 598.418 23.608 598.418 19.552C598.418 15.392 599.874 11.96 602.786 9.25599C605.802 6.44799 609.65 5.04399 614.33 5.04399C618.906 5.04399 622.65 6.44799 625.562 9.25599C628.578 11.96 630.086 15.392 630.086 19.552C630.086 23.608 628.578 27.04 625.562 29.848C622.65 32.552 618.906 33.904 614.33 33.904ZM627.746 141.232C627.746 151.944 625.042 159.64 619.634 164.32C614.226 169.104 606.686 171.496 597.014 171.496H586.562V148.876H592.958C595.87 148.876 597.95 148.304 599.198 147.16C600.446 146.016 601.07 144.144 601.07 141.544V42.952H627.746V141.232ZM660.342 33.904C655.662 33.904 651.814 32.552 648.798 29.848C645.886 27.04 644.43 23.608 644.43 19.552C644.43 15.392 645.886 11.96 648.798 9.25599C651.814 6.44799 655.662 5.04399 660.342 5.04399C664.918 5.04399 668.662 6.44799 671.574 9.25599C674.59 11.96 676.098 15.392 676.098 19.552C676.098 23.608 674.59 27.04 671.574 29.848C668.662 32.552 664.918 33.904 660.342 33.904ZM673.602 42.952V130H646.926V42.952H673.602Z" fill="#FCDC2A" fill-opacity="0.17"/>
</svg>
