<svg width="50" height="55" viewBox="0 0 50 55" fill="none" xmlns="http://www.w3.org/2000/svg">
<path d="M13.32 27H10.52L4.18 17.42V27H1.38V13.02H4.18L10.52 22.62V13.02H13.32V27ZM26.387 21.22C26.387 21.62 26.3604 21.98 26.307 22.3H18.207C18.2737 23.1 18.5537 23.7267 19.047 24.18C19.5404 24.6333 20.147 24.86 20.867 24.86C21.907 24.86 22.647 24.4133 23.087 23.52H26.107C25.787 24.5867 25.1737 25.4667 24.267 26.16C23.3604 26.84 22.247 27.18 20.927 27.18C19.8604 27.18 18.9004 26.9467 18.047 26.48C17.207 26 16.547 25.3267 16.067 24.46C15.6004 23.5933 15.367 22.5933 15.367 21.46C15.367 20.3133 15.6004 19.3067 16.067 18.44C16.5337 17.5733 17.187 16.9067 18.027 16.44C18.867 15.9733 19.8337 15.74 20.927 15.74C21.9804 15.74 22.9204 15.9667 23.747 16.42C24.587 16.8733 25.2337 17.52 25.687 18.36C26.1537 19.1867 26.387 20.14 26.387 21.22ZM23.487 20.42C23.4737 19.7 23.2137 19.1267 22.707 18.7C22.2004 18.26 21.5804 18.04 20.847 18.04C20.1537 18.04 19.567 18.2533 19.087 18.68C18.6204 19.0933 18.3337 19.6733 18.227 20.42H23.487ZM34.5508 27L32.2708 23.56L30.2508 27H27.2508L30.8708 21.44L27.2108 15.92H30.3708L32.6308 19.34L34.6708 15.92H37.6708L34.0308 21.44L37.7108 27H34.5508ZM42.4916 18.22V23.58C42.4916 23.9533 42.5782 24.2267 42.7516 24.4C42.9382 24.56 43.2449 24.64 43.6716 24.64H44.9716V27H43.2116C40.8516 27 39.6716 25.8533 39.6716 23.56V18.22H38.3516V15.92H39.6716V13.18H42.4916V15.92H44.9716V18.22H42.4916Z" fill="#FFFEF9"/>
<path fill-rule="evenodd" clip-rule="evenodd" d="M18.9458 48.7759C18.8429 48.6811 18.7188 48.6051 18.581 48.5524C18.4432 48.4997 18.2944 48.4714 18.1435 48.4691C17.9926 48.4668 17.8427 48.4906 17.7028 48.5391C17.5629 48.5876 17.4358 48.6598 17.3291 48.7514C17.2224 48.8429 17.1383 48.952 17.0818 49.0721C17.0253 49.1922 16.9975 49.3208 17.0002 49.4502C17.0028 49.5797 17.0359 49.7074 17.0973 49.8257C17.1587 49.944 17.2472 50.0504 17.3576 50.1387L22.2269 54.3173L23.0209 55L23.815 54.3186L28.6842 50.14C28.889 49.9582 29.0024 49.7147 29 49.4618C28.9975 49.209 28.8795 48.9671 28.6713 48.7882C28.463 48.6094 28.1812 48.5078 27.8866 48.5055C27.592 48.5032 27.3081 48.6003 27.0961 48.7759L24.1446 51.3087L24.1446 37.9643C24.1446 37.7085 24.0262 37.4633 23.8155 37.2824C23.6047 37.1016 23.3189 37 23.0209 37C22.7229 37 22.4371 37.1016 22.2264 37.2824C22.0156 37.4633 21.8973 37.7085 21.8973 37.9643L21.8973 51.3087L18.9458 48.7759Z" fill="#FFFEF9"/>
</svg>
