<svg width="754" height="129" viewBox="0 0 754 129" fill="none" xmlns="http://www.w3.org/2000/svg">
<g filter="url(#filter0_d_51_2)">
<ellipse cx="365" cy="125.5" rx="73" ry="74.5" fill="#13841E"/>
<path d="M327 62.0632C233.319 119.782 90.6331 129.99 31 127.879L313.194 189.942L327 62.0632Z" fill="#13841E"/>
<path d="M407 64.6564C504.375 122.749 652.906 132.301 715 129.816L421.015 194.472L407 64.6564Z" fill="#13841E"/>
</g>
<path d="M353.32 89H350.52L344.18 79.42V89H341.38V75.02H344.18L350.52 84.62V75.02H353.32V89ZM366.387 83.22C366.387 83.62 366.36 83.98 366.307 84.3H358.207C358.274 85.1 358.554 85.7267 359.047 86.18C359.54 86.6333 360.147 86.86 360.867 86.86C361.907 86.86 362.647 86.4133 363.087 85.52H366.107C365.787 86.5867 365.174 87.4667 364.267 88.16C363.36 88.84 362.247 89.18 360.927 89.18C359.86 89.18 358.9 88.9467 358.047 88.48C357.207 88 356.547 87.3267 356.067 86.46C355.6 85.5933 355.367 84.5933 355.367 83.46C355.367 82.3133 355.6 81.3067 356.067 80.44C356.534 79.5733 357.187 78.9067 358.027 78.44C358.867 77.9733 359.834 77.74 360.927 77.74C361.98 77.74 362.92 77.9667 363.747 78.42C364.587 78.8733 365.234 79.52 365.687 80.36C366.154 81.1867 366.387 82.14 366.387 83.22ZM363.487 82.42C363.474 81.7 363.214 81.1267 362.707 80.7C362.2 80.26 361.58 80.04 360.847 80.04C360.154 80.04 359.567 80.2533 359.087 80.68C358.62 81.0933 358.334 81.6733 358.227 82.42H363.487ZM374.551 89L372.271 85.56L370.251 89H367.251L370.871 83.44L367.211 77.92H370.371L372.631 81.34L374.671 77.92H377.671L374.031 83.44L377.711 89H374.551ZM382.492 80.22V85.58C382.492 85.9533 382.578 86.2267 382.752 86.4C382.938 86.56 383.245 86.64 383.672 86.64H384.972V89H383.212C380.852 89 379.672 87.8533 379.672 85.56V80.22H378.352V77.92H379.672V75.18H382.492V77.92H384.972V80.22H382.492Z" fill="#FFFEF9"/>
<path fill-rule="evenodd" clip-rule="evenodd" d="M360.946 113.776C360.843 113.681 360.719 113.605 360.581 113.552C360.443 113.5 360.294 113.471 360.143 113.469C359.993 113.467 359.843 113.491 359.703 113.539C359.563 113.588 359.436 113.66 359.329 113.751C359.222 113.843 359.138 113.952 359.082 114.072C359.025 114.192 358.998 114.321 359 114.45C359.003 114.58 359.036 114.707 359.097 114.826C359.159 114.944 359.247 115.05 359.358 115.139L364.227 119.317L365.021 120L365.815 119.319L370.684 115.14C370.889 114.958 371.002 114.715 371 114.462C370.998 114.209 370.879 113.967 370.671 113.788C370.463 113.609 370.181 113.508 369.887 113.506C369.592 113.503 369.308 113.6 369.096 113.776L366.145 116.309L366.145 102.964C366.145 102.709 366.026 102.463 365.815 102.282C365.605 102.102 365.319 102 365.021 102C364.723 102 364.437 102.102 364.226 102.282C364.016 102.463 363.897 102.709 363.897 102.964L363.897 116.309L360.946 113.776Z" fill="#FFFEF9"/>
<defs>
<filter id="filter0_d_51_2" x="0.700001" y="7.70003" width="752.6" height="217.6" filterUnits="userSpaceOnUse" color-interpolation-filters="sRGB">
<feFlood flood-opacity="0" result="BackgroundImageFix"/>
<feColorMatrix in="SourceAlpha" type="matrix" values="0 0 0 0 0 0 0 0 0 0 0 0 0 0 0 0 0 0 127 0" result="hardAlpha"/>
<feOffset dx="4" dy="-9"/>
<feGaussianBlur stdDeviation="17.15"/>
<feComposite in2="hardAlpha" operator="out"/>
<feColorMatrix type="matrix" values="0 0 0 0 0 0 0 0 0 0 0 0 0 0 0 0 0 0 0.07 0"/>
<feBlend mode="normal" in2="BackgroundImageFix" result="effect1_dropShadow_51_2"/>
<feBlend mode="normal" in="SourceGraphic" in2="effect1_dropShadow_51_2" result="shape"/>
</filter>
</defs>
</svg>
