<svg width="127" height="214" viewBox="0 0 127 214" fill="none" xmlns="http://www.w3.org/2000/svg">
<g clip-path="url(#clip0_470_45)">
<path d="M64.0074 10.9531C67.0684 10.972 69.5736 13.1665 69.5917 15.845C69.5999 17.1202 69.0427 18.3485 68.0373 19.2717L69.0981 20.1999C70.3868 19.0285 71.1021 17.4632 71.0917 15.8373C71.0687 12.4445 67.8955 9.66466 64.018 9.64062C62.1557 9.62366 60.361 10.2506 59.0241 11.3853L60.0848 12.3134C61.1391 11.4289 62.547 10.9407 64.0074 10.9531ZM68.8418 21.8319L67.3418 20.5194L63.4046 17.0743L61.4223 15.3398L60.2578 14.3208L53.7839 8.65625H52.7168V9.57865L57.3243 13.6102C57.004 14.3323 56.8403 15.1004 56.8418 15.875V17.1875H58.3418V15.875C58.3414 15.4628 58.3998 15.0522 58.5156 14.6527L59.8432 15.8145C59.8422 15.847 59.8417 15.8796 59.8417 15.9121V19.4283L60.0802 19.6368C60.6007 20.0897 61.0133 20.6284 61.2942 21.2218C61.5751 21.8152 61.7188 22.4515 61.7168 23.0938H63.2168C63.2218 21.5359 62.5518 20.0343 61.3418 18.8916V17.1255L67.3418 22.3755V23.4492C67.341 24.1379 67.0279 24.7982 66.4714 25.2852C65.9148 25.7722 65.1602 26.0461 64.3731 26.0469H63.2168V27.3594H64.3731C65.512 27.3582 66.6075 26.977 67.4363 26.2935C68.2652 25.61 68.7649 24.6757 68.8337 23.6809L74.1627 28.3438H75.2168V27.41L68.8418 21.8319Z" fill="white"/>
<path d="M63.9358 12.2656C62.8997 12.2732 61.9057 12.6249 61.1548 13.2496L62.2151 14.1774C62.6874 13.7966 63.3047 13.583 63.9469 13.5781H63.967C64.6632 13.5781 65.3308 13.8201 65.8231 14.2509C66.3154 14.6816 66.592 15.2658 66.592 15.875H68.092C68.092 15.3987 67.9843 14.9271 67.775 14.4874C67.5658 14.0477 67.2591 13.6486 66.8728 13.3131C66.4864 12.9776 66.028 12.7123 65.5239 12.5325C65.0199 12.3527 64.4801 12.262 63.9358 12.2656Z" fill="white"/>
</g>
<path fill-rule="evenodd" clip-rule="evenodd" d="M80.6992 8.63293C84.6046 13.9738 89.8559 19.3434 96.4723 19.3434H114C121.18 19.3434 127 25.1637 127 32.3434V201C127 208.18 121.18 214 114 214H13C5.8203 214 0 208.18 0 201V32.3433C0 25.1636 5.8203 19.3434 13 19.3434H31.5277C38.1441 19.3434 43.3954 13.9738 47.3008 8.63292C51.1378 3.38546 57.1904 0 64 0C70.8096 0 76.8622 3.38547 80.6992 8.63293Z" fill="#D9D9D9" fill-opacity="0.26"/>
<defs>
<clipPath id="clip0_470_45">
<rect width="24" height="21" fill="white" transform="translate(52 8)"/>
</clipPath>
</defs>
</svg>
