<svg width="98" height="615" viewBox="0 0 98 615" fill="none" xmlns="http://www.w3.org/2000/svg">
<path d="M95.3164 235.741C95.3164 298.741 95.3164 314.741 95.3164 314.741C95.3164 314.741 95.3164 330.241 95.3164 381.741C42.6746 381.741 2.18151e-06 349.058 0 308.741C-2.18151e-06 268.424 42.6746 235.741 95.3164 235.741Z" fill="#13841E"/>
<path d="M95.1669 610.763C95.6076 622.992 95.5586 601.822 95.1669 610.763C92.6684 541.423 74.4308 426.376 13.6949 346.741H95.1669V610.763Z" fill="#13841E"/>
<path d="M97.2185 6.06741C98.1988 -12.5006 97.8427 18.6671 97.2185 6.06741C93.3674 79.0066 74.2242 189.125 16.905 266.741H95.3164L97.2185 6.06741Z" fill="#13841E"/>
<path fill-rule="evenodd" clip-rule="evenodd" d="M66.8132 314.12C66.7343 314.205 66.6709 314.309 66.627 314.424C66.5831 314.538 66.5595 314.662 66.5576 314.788C66.5557 314.914 66.5755 315.039 66.6159 315.155C66.6564 315.272 66.7165 315.378 66.7928 315.467C66.8691 315.556 66.96 315.626 67.0601 315.673C67.1601 315.72 67.2673 315.743 67.3752 315.741C67.4831 315.739 67.5895 315.711 67.6881 315.66C67.7866 315.609 67.8754 315.535 67.9489 315.443L71.4311 311.385L72 310.724L71.4321 310.062L67.95 306.004C67.7985 305.834 67.5956 305.739 67.3849 305.741C67.1742 305.743 66.9726 305.841 66.8235 306.015C66.6745 306.189 66.5899 306.423 66.5879 306.669C66.586 306.914 66.6669 307.151 66.8132 307.328L68.9239 309.787H57.8036C57.5905 309.787 57.3861 309.886 57.2354 310.061C57.0847 310.237 57 310.475 57 310.724C57 310.972 57.0847 311.21 57.2354 311.386C57.3861 311.561 57.5905 311.66 57.8036 311.66H68.9239L66.8132 314.12Z" fill="#FFFEF9"/>
<path d="M18.99 315.741H16.89L12.135 308.556V315.741H10.035V305.256H12.135L16.89 312.456V305.256H18.99V315.741ZM28.7903 311.406C28.7903 311.706 28.7703 311.976 28.7303 312.216H22.6553C22.7053 312.816 22.9153 313.286 23.2853 313.626C23.6553 313.966 24.1103 314.136 24.6503 314.136C25.4303 314.136 25.9853 313.801 26.3153 313.131H28.5803C28.3403 313.931 27.8803 314.591 27.2003 315.111C26.5203 315.621 25.6853 315.876 24.6953 315.876C23.8953 315.876 23.1753 315.701 22.5353 315.351C21.9053 314.991 21.4103 314.486 21.0503 313.836C20.7003 313.186 20.5253 312.436 20.5253 311.586C20.5253 310.726 20.7003 309.971 21.0503 309.321C21.4003 308.671 21.8903 308.171 22.5203 307.821C23.1503 307.471 23.8753 307.296 24.6953 307.296C25.4853 307.296 26.1903 307.466 26.8103 307.806C27.4403 308.146 27.9253 308.631 28.2653 309.261C28.6153 309.881 28.7903 310.596 28.7903 311.406ZM26.6153 310.806C26.6053 310.266 26.4103 309.836 26.0303 309.516C25.6503 309.186 25.1853 309.021 24.6353 309.021C24.1153 309.021 23.6753 309.181 23.3153 309.501C22.9653 309.811 22.7503 310.246 22.6703 310.806H26.6153ZM34.9131 315.741L33.2031 313.161L31.6881 315.741H29.4381L32.1531 311.571L29.4081 307.431H31.7781L33.4731 309.996L35.0031 307.431H37.2531L34.5231 311.571L37.2831 315.741H34.9131ZM40.8687 309.156V313.176C40.8687 313.456 40.9337 313.661 41.0637 313.791C41.2037 313.911 41.4337 313.971 41.7537 313.971H42.7287V315.741H41.4087C39.6387 315.741 38.7537 314.881 38.7537 313.161V309.156H37.7637V307.431H38.7537V305.376H40.8687V307.431H42.7287V309.156H40.8687Z" fill="#FFFEF9"/>
</svg>
