<svg width="98" height="615" viewBox="0 0 98 615" fill="none" xmlns="http://www.w3.org/2000/svg">
<path d="M2.51073 378.934C2.51073 315.934 2.51073 299.934 2.51073 299.934C2.51073 299.934 2.51074 284.434 2.51073 232.934C55.1525 232.934 97.8271 265.617 97.8271 305.934C97.8272 346.251 55.1525 378.934 2.51073 378.934Z" fill="#13841E"/>
<path d="M2.66023 3.9126C2.2685 12.8535 2.21956 -8.31714 2.66023 3.9126C5.15874 73.252 23.3963 188.299 84.1322 267.934H2.66023L2.66023 3.9126Z" fill="#13841E"/>
<path d="M0.608673 608.608C-0.0155716 596.008 -0.371681 627.176 0.608673 608.608C4.45971 535.669 23.603 425.55 80.9222 347.934H2.51075L0.608673 608.608Z" fill="#13841E"/>
<path fill-rule="evenodd" clip-rule="evenodd" d="M27.1868 300.556C27.2657 300.47 27.3291 300.367 27.373 300.252C27.4169 300.137 27.4405 300.013 27.4424 299.887C27.4443 299.761 27.4245 299.636 27.3841 299.52C27.3436 299.403 27.2835 299.297 27.2072 299.208C27.1309 299.12 27.04 299.049 26.9399 299.002C26.8399 298.955 26.7327 298.932 26.6248 298.934C26.5169 298.937 26.4105 298.964 26.3119 299.015C26.2134 299.066 26.1246 299.14 26.0511 299.232L22.5689 303.29L22 303.952L22.5679 304.613L26.05 308.671C26.2015 308.842 26.4044 308.936 26.6151 308.934C26.8258 308.932 27.0274 308.834 27.1765 308.66C27.3255 308.487 27.4101 308.252 27.4121 308.006C27.414 307.761 27.3331 307.524 27.1868 307.348L25.0761 304.888H36.1964C36.4095 304.888 36.6139 304.789 36.7646 304.614C36.9153 304.438 37 304.2 37 303.952C37 303.703 36.9153 303.465 36.7646 303.29C36.6139 303.114 36.4095 303.015 36.1964 303.015H25.0761L27.1868 300.556Z" fill="#FFFEF9"/>
<path d="M55.975 303.63C56.565 303.74 57.05 304.035 57.43 304.515C57.81 304.995 58 305.545 58 306.165C58 306.725 57.86 307.22 57.58 307.65C57.31 308.07 56.915 308.4 56.395 308.64C55.875 308.88 55.26 309 54.55 309L50.035 309L50.035 298.53L54.355 298.53C55.065 298.53 55.675 298.645 56.185 298.875C56.705 299.105 57.095 299.425 57.355 299.835C57.625 300.245 57.76 300.71 57.76 301.23C57.76 301.84 57.595 302.35 57.265 302.76C56.945 303.17 56.515 303.46 55.975 303.63ZM52.135 302.85L54.055 302.85C54.555 302.85 54.94 302.74 55.21 302.52C55.48 302.29 55.615 301.965 55.615 301.545C55.615 301.125 55.48 300.8 55.21 300.57C54.94 300.34 54.555 300.225 54.055 300.225L52.135 300.225L52.135 302.85ZM54.25 307.29C54.76 307.29 55.155 307.17 55.435 306.93C55.725 306.69 55.87 306.35 55.87 305.91C55.87 305.46 55.72 305.11 55.42 304.86C55.12 304.6 54.715 304.47 54.205 304.47L52.135 304.47L52.135 307.29L54.25 307.29ZM59.1337 304.815C59.1337 303.975 59.2987 303.23 59.6287 302.58C59.9687 301.93 60.4237 301.43 60.9937 301.08C61.5737 300.73 62.2187 300.555 62.9287 300.555C63.5487 300.555 64.0887 300.68 64.5487 300.93C65.0187 301.18 65.3937 301.495 65.6737 301.875L65.6737 300.69L67.7887 300.69L67.7887 309L65.6737 309L65.6737 307.785C65.4037 308.175 65.0287 308.5 64.5487 308.76C64.0787 309.01 63.5337 309.135 62.9137 309.135C62.2137 309.135 61.5737 308.955 60.9937 308.595C60.4237 308.235 59.9687 307.73 59.6287 307.08C59.2987 306.42 59.1337 305.665 59.1337 304.815ZM65.6737 304.845C65.6737 304.335 65.5737 303.9 65.3737 303.54C65.1737 303.17 64.9037 302.89 64.5637 302.7C64.2237 302.5 63.8587 302.4 63.4687 302.4C63.0787 302.4 62.7187 302.495 62.3887 302.685C62.0587 302.875 61.7887 303.155 61.5787 303.525C61.3787 303.885 61.2787 304.315 61.2787 304.815C61.2787 305.315 61.3787 305.755 61.5787 306.135C61.7887 306.505 62.0587 306.79 62.3887 306.99C62.7287 307.19 63.0887 307.29 63.4687 307.29C63.8587 307.29 64.2237 307.195 64.5637 307.005C64.9037 306.805 65.1737 306.525 65.3737 306.165C65.5737 305.795 65.6737 305.355 65.6737 304.845ZM69.2997 304.845C69.2997 303.985 69.4747 303.235 69.8247 302.595C70.1747 301.945 70.6597 301.445 71.2797 301.095C71.8997 300.735 72.6097 300.555 73.4097 300.555C74.4397 300.555 75.2897 300.815 75.9597 301.335C76.6397 301.845 77.0947 302.565 77.3247 303.495L75.0597 303.495C74.9397 303.135 74.7347 302.855 74.4447 302.655C74.1647 302.445 73.8147 302.34 73.3947 302.34C72.7947 302.34 72.3197 302.56 71.9697 303C71.6197 303.43 71.4447 304.045 71.4447 304.845C71.4447 305.635 71.6197 306.25 71.9697 306.69C72.3197 307.12 72.7947 307.335 73.3947 307.335C74.2447 307.335 74.7997 306.955 75.0597 306.195L77.3247 306.195C77.0947 307.095 76.6397 307.81 75.9597 308.34C75.2797 308.87 74.4297 309.135 73.4097 309.135C72.6097 309.135 71.8997 308.96 71.2797 308.61C70.6597 308.25 70.1747 307.75 69.8247 307.11C69.4747 306.46 69.2997 305.705 69.2997 304.845ZM83.7831 309L80.9631 305.46L80.9631 309L78.8631 309L78.8631 297.9L80.9631 297.9L80.9631 304.215L83.7531 300.69L86.4831 300.69L82.8231 304.86L86.5131 309L83.7831 309Z" fill="#FFFEF9"/>
</svg>
