<svg width="98" height="615" viewBox="0 0 98 615" fill="none" xmlns="http://www.w3.org/2000/svg">
<path d="M2.6831 236C2.6831 299 2.6831 315 2.6831 315C2.6831 315 2.68311 330.5 2.6831 382C55.3249 382 97.9995 349.317 97.9995 309C97.9995 268.683 55.3249 236 2.6831 236Z" fill="#13841E"/>
<path d="M2.8326 611.022C2.39192 623.251 2.44086 602.081 2.8326 611.022C5.3311 541.682 23.5687 426.635 84.3046 347H2.8326V611.022Z" fill="#13841E"/>
<path d="M0.781036 6.32629C-0.199319 -12.2417 0.156794 18.926 0.781036 6.32629C4.63207 79.2655 23.7753 189.384 81.0945 267H2.68311L0.781036 6.32629Z" fill="#13841E"/>
<path fill-rule="evenodd" clip-rule="evenodd" d="M31.1863 314.378C31.2652 314.464 31.3286 314.568 31.3725 314.682C31.4164 314.797 31.44 314.921 31.4419 315.047C31.4438 315.173 31.424 315.298 31.3836 315.414C31.3432 315.531 31.283 315.637 31.2067 315.726C31.1304 315.815 31.0395 315.885 30.9394 315.932C30.8394 315.979 30.7322 316.002 30.6243 316C30.5164 315.998 30.41 315.97 30.3114 315.919C30.2129 315.868 30.1242 315.794 30.0506 315.702L26.5684 311.644L25.9995 310.983L26.5674 310.321L30.0495 306.263C30.201 306.092 30.4039 305.998 30.6146 306C30.8253 306.002 31.0269 306.1 31.176 306.274C31.325 306.447 31.4096 306.682 31.4116 306.928C31.4135 307.173 31.3326 307.41 31.1863 307.587L29.0756 310.046H40.1959C40.4091 310.046 40.6135 310.145 40.7642 310.32C40.9148 310.496 40.9995 310.734 40.9995 310.983C40.9995 311.231 40.9148 311.469 40.7642 311.645C40.6135 311.82 40.4091 311.919 40.1959 311.919H29.0756L31.1863 314.378Z" fill="#FFFEF9"/>
<path d="M63.9895 316H61.8895L57.1345 308.815V316H55.0345V305.515H57.1345L61.8895 312.715V305.515H63.9895V316ZM73.7898 311.665C73.7898 311.965 73.7698 312.235 73.7298 312.475H67.6548C67.7048 313.075 67.9148 313.545 68.2848 313.885C68.6548 314.225 69.1098 314.395 69.6498 314.395C70.4298 314.395 70.9848 314.06 71.3148 313.39H73.5798C73.3398 314.19 72.8798 314.85 72.1998 315.37C71.5198 315.88 70.6848 316.135 69.6948 316.135C68.8948 316.135 68.1748 315.96 67.5348 315.61C66.9048 315.25 66.4098 314.745 66.0498 314.095C65.6998 313.445 65.5248 312.695 65.5248 311.845C65.5248 310.985 65.6998 310.23 66.0498 309.58C66.3998 308.93 66.8898 308.43 67.5198 308.08C68.1498 307.73 68.8748 307.555 69.6948 307.555C70.4848 307.555 71.1898 307.725 71.8098 308.065C72.4398 308.405 72.9248 308.89 73.2648 309.52C73.6148 310.14 73.7898 310.855 73.7898 311.665ZM71.6148 311.065C71.6048 310.525 71.4098 310.095 71.0298 309.775C70.6498 309.445 70.1848 309.28 69.6348 309.28C69.1148 309.28 68.6748 309.44 68.3148 309.76C67.9648 310.07 67.7498 310.505 67.6698 311.065H71.6148ZM79.9126 316L78.2026 313.42L76.6876 316H74.4376L77.1526 311.83L74.4076 307.69H76.7776L78.4726 310.255L80.0026 307.69H82.2526L79.5226 311.83L82.2826 316H79.9126ZM85.8682 309.415V313.435C85.8682 313.715 85.9332 313.92 86.0632 314.05C86.2032 314.17 86.4332 314.23 86.7532 314.23H87.7282V316H86.4082C84.6382 316 83.7532 315.14 83.7532 313.42V309.415H82.7632V307.69H83.7532V305.635H85.8682V307.69H87.7282V309.415H85.8682Z" fill="#FFFEF9"/>
</svg>
