<svg width="350" height="99" viewBox="0 0 350 99" fill="none" xmlns="http://www.w3.org/2000/svg">
<path d="M52.059 92L25.863 57.59V92H6.882V14.078H25.863V48.266L51.837 14.078H74.148L43.956 52.262L75.258 92H52.059ZM142.664 60.032C142.664 61.808 142.553 63.658 142.331 65.582H99.3745C99.6705 69.43 100.891 72.39 103.037 74.462C105.257 76.46 107.958 77.459 111.14 77.459C115.876 77.459 119.169 75.461 121.019 71.465H141.221C140.185 75.535 138.298 79.198 135.56 82.454C132.896 85.71 129.529 88.263 125.459 90.113C121.389 91.963 116.838 92.888 111.806 92.888C105.738 92.888 100.336 91.593 95.6005 89.003C90.8645 86.413 87.1645 82.713 84.5005 77.903C81.8365 73.093 80.5045 67.469 80.5045 61.031C80.5045 54.593 81.7995 48.969 84.3895 44.159C87.0535 39.349 90.7535 35.649 95.4895 33.059C100.225 30.469 105.664 29.174 111.806 29.174C117.8 29.174 123.128 30.432 127.79 32.948C132.452 35.464 136.078 39.053 138.668 43.715C141.332 48.377 142.664 53.816 142.664 60.032ZM123.239 55.037C123.239 51.781 122.129 49.191 119.909 47.267C117.689 45.343 114.914 44.381 111.584 44.381C108.402 44.381 105.701 45.306 103.481 47.156C101.335 49.006 100.003 51.633 99.4855 55.037H123.239ZM148.904 60.92C148.904 54.556 150.088 48.969 152.456 44.159C154.898 39.349 158.191 35.649 162.335 33.059C166.479 30.469 171.104 29.174 176.21 29.174C180.28 29.174 183.98 30.025 187.31 31.727C190.714 33.429 193.378 35.723 195.302 38.609V9.86H214.283V92H195.302V83.12C193.526 86.08 190.973 88.448 187.643 90.224C184.387 92 180.576 92.888 176.21 92.888C171.104 92.888 166.479 91.593 162.335 89.003C158.191 86.339 154.898 82.602 152.456 77.792C150.088 72.908 148.904 67.284 148.904 60.92ZM195.302 61.031C195.302 56.295 193.97 52.558 191.306 49.82C188.716 47.082 185.534 45.713 181.76 45.713C177.986 45.713 174.767 47.082 172.103 49.82C169.513 52.484 168.218 56.184 168.218 60.92C168.218 65.656 169.513 69.43 172.103 72.242C174.767 74.98 177.986 76.349 181.76 76.349C185.534 76.349 188.716 74.98 191.306 72.242C193.97 69.504 195.302 65.767 195.302 61.031ZM237.561 23.624C234.231 23.624 231.493 22.662 229.347 20.738C227.275 18.74 226.239 16.298 226.239 13.412C226.239 10.452 227.275 8.01 229.347 6.08599C231.493 4.08799 234.231 3.08899 237.561 3.08899C240.817 3.08899 243.481 4.08799 245.553 6.08599C247.699 8.01 248.772 10.452 248.772 13.412C248.772 16.298 247.699 18.74 245.553 20.738C243.481 22.662 240.817 23.624 237.561 23.624ZM246.996 30.062V92H228.015V30.062H246.996ZM279.732 40.385C281.952 36.981 284.727 34.317 288.057 32.393C291.387 30.395 295.087 29.396 299.157 29.396V49.487H293.94C289.204 49.487 285.652 50.523 283.284 52.595C280.916 54.593 279.732 58.145 279.732 63.251V92H260.751V30.062H279.732V40.385ZM317.776 23.624C314.446 23.624 311.708 22.662 309.562 20.738C307.49 18.74 306.454 16.298 306.454 13.412C306.454 10.452 307.49 8.01 309.562 6.08599C311.708 4.08799 314.446 3.08899 317.776 3.08899C321.032 3.08899 323.696 4.08799 325.768 6.08599C327.914 8.01 328.987 10.452 328.987 13.412C328.987 16.298 327.914 18.74 325.768 20.738C323.696 22.662 321.032 23.624 317.776 23.624ZM327.211 30.062V92H308.23V30.062H327.211Z" fill="#FCDC2A" fill-opacity="0.17"/>
</svg>
