<svg width="615" height="98" viewBox="0 0 615 98" fill="none" xmlns="http://www.w3.org/2000/svg">
<path d="M235.741 95.4889C298.741 95.4889 314.741 95.4889 314.741 95.4889C314.741 95.4889 330.241 95.4889 381.741 95.4889C381.741 42.8471 349.058 0.172533 308.741 0.172533C268.424 0.172532 235.741 42.8471 235.741 95.4889Z" fill="#13841E"/>
<path d="M610.763 95.3394C601.822 95.7312 622.992 95.7801 610.763 95.3394C541.423 92.8409 426.376 74.6034 346.741 13.8674L346.741 95.3394L610.763 95.3394Z" fill="#13841E"/>
<path d="M6.06741 97.391C18.6671 98.0153 -12.5006 98.3714 6.06741 97.391C79.0066 93.54 189.125 74.3967 266.741 17.0775L266.741 95.4889L6.06741 97.391Z" fill="#13841E"/>
</svg>
