<svg width="98" height="684" viewBox="0 0 98 684" fill="none" xmlns="http://www.w3.org/2000/svg">
<path d="M2.68359 277C2.68359 340 2.68359 356 2.68359 356C2.68359 356 2.6836 371.5 2.68359 423C55.3254 423 98 390.317 98 350C98 309.683 55.3254 277 2.68359 277Z" fill="#13841E"/>
<path d="M2.83308 652.022C2.39241 664.251 2.44135 675.059 2.83308 684V652.022C5.33159 582.682 23.5692 467.635 84.3051 388H2.83308V652.022Z" fill="#13841E"/>
<path d="M0.781038 47.3263C-0.199318 28.7583 -0.188627 12.5997 0.435615 0L0.781038 47.3263C4.63207 120.265 23.7758 230.384 81.095 308H2.6836L0.781038 47.3263Z" fill="#13841E"/>
<path fill-rule="evenodd" clip-rule="evenodd" d="M40.1868 355.378C40.2657 355.464 40.3291 355.568 40.373 355.682C40.4169 355.797 40.4405 355.921 40.4424 356.047C40.4443 356.173 40.4245 356.298 40.3841 356.414C40.3436 356.531 40.2835 356.637 40.2072 356.726C40.1309 356.815 40.04 356.885 39.9399 356.932C39.8399 356.979 39.7327 357.002 39.6248 357C39.5169 356.998 39.4105 356.97 39.3119 356.919C39.2134 356.868 39.1246 356.794 39.0511 356.702L35.5689 352.644L35 351.983L35.5679 351.321L39.05 347.263C39.2015 347.092 39.4044 346.998 39.6151 347C39.8258 347.002 40.0274 347.1 40.1765 347.274C40.3255 347.447 40.4101 347.682 40.4121 347.928C40.414 348.173 40.3331 348.41 40.1868 348.587L38.0761 351.046H49.1964C49.4095 351.046 49.6139 351.145 49.7646 351.32C49.9153 351.496 50 351.734 50 351.983C50 352.231 49.9153 352.469 49.7646 352.645C49.6139 352.82 49.4095 352.919 49.1964 352.919H38.0761L40.1868 355.378Z" fill="#FFFEF9"/>
<path d="M63.99 357H61.89L57.135 349.815V357H55.035V346.515H57.135L61.89 353.715V346.515H63.99V357ZM73.7903 352.665C73.7903 352.965 73.7703 353.235 73.7303 353.475H67.6553C67.7053 354.075 67.9153 354.545 68.2853 354.885C68.6553 355.225 69.1103 355.395 69.6503 355.395C70.4303 355.395 70.9853 355.06 71.3153 354.39H73.5803C73.3403 355.19 72.8803 355.85 72.2003 356.37C71.5203 356.88 70.6853 357.135 69.6953 357.135C68.8953 357.135 68.1753 356.96 67.5353 356.61C66.9053 356.25 66.4103 355.745 66.0503 355.095C65.7003 354.445 65.5253 353.695 65.5253 352.845C65.5253 351.985 65.7003 351.23 66.0503 350.58C66.4003 349.93 66.8903 349.43 67.5203 349.08C68.1503 348.73 68.8753 348.555 69.6953 348.555C70.4853 348.555 71.1903 348.725 71.8103 349.065C72.4403 349.405 72.9253 349.89 73.2653 350.52C73.6153 351.14 73.7903 351.855 73.7903 352.665ZM71.6153 352.065C71.6053 351.525 71.4103 351.095 71.0303 350.775C70.6503 350.445 70.1853 350.28 69.6353 350.28C69.1153 350.28 68.6753 350.44 68.3153 350.76C67.9653 351.07 67.7503 351.505 67.6703 352.065H71.6153ZM79.9131 357L78.2031 354.42L76.6881 357H74.4381L77.1531 352.83L74.4081 348.69H76.7781L78.4731 351.255L80.0031 348.69H82.2531L79.5231 352.83L82.2831 357H79.9131ZM85.8687 350.415V354.435C85.8687 354.715 85.9337 354.92 86.0637 355.05C86.2037 355.17 86.4337 355.23 86.7537 355.23H87.7287V357H86.4087C84.6387 357 83.7537 356.14 83.7537 354.42V350.415H82.7637V348.69H83.7537V346.635H85.8687V348.69H87.7287V350.415H85.8687Z" fill="#FFFEF9"/>
</svg>
