<svg width="659" height="142" viewBox="0 0 659 142" fill="none" xmlns="http://www.w3.org/2000/svg">
<g filter="url(#filter0_d_302_26)">
<path d="M399.934 17.511C336.934 17.511 320.934 17.511 320.934 17.511C320.934 17.511 305.434 17.511 253.934 17.511C253.934 70.1528 286.617 112.827 326.934 112.827C367.251 112.827 399.934 70.1528 399.934 17.511Z" fill="#13841E"/>
<path d="M24.9126 17.6605C12.6829 17.2198 33.8535 17.2688 24.9126 17.6605C94.2519 20.159 209.299 38.3966 288.934 99.1325L288.934 17.6605L24.9126 17.6605Z" fill="#13841E"/>
<path d="M629.608 15.609C648.176 14.6286 617.008 14.9847 629.608 15.609C556.669 19.46 446.55 38.6033 368.934 95.9225L368.934 17.511L629.608 15.609Z" fill="#13841E"/>
<path fill-rule="evenodd" clip-rule="evenodd" d="M324.017 53.1769C323.929 53.2709 323.822 53.3463 323.704 53.3986C323.586 53.4509 323.459 53.479 323.33 53.4813C323.201 53.4836 323.073 53.4599 322.953 53.4118C322.833 53.3637 322.724 53.292 322.633 53.2012C322.542 53.1103 322.47 53.002 322.421 52.8829C322.373 52.7637 322.349 52.6361 322.351 52.5076C322.354 52.3791 322.382 52.2524 322.435 52.135C322.487 52.0176 322.563 51.912 322.657 51.8244L326.825 47.6776L327.504 47L328.184 47.6763L332.351 51.8231C332.527 52.0035 332.624 52.2452 332.622 52.4961C332.619 52.747 332.518 52.9871 332.34 53.1646C332.162 53.3421 331.921 53.4428 331.669 53.4451C331.417 53.4474 331.174 53.3511 330.992 53.1769L328.466 50.6633L328.466 63.9063C328.466 64.1601 328.365 64.4035 328.184 64.5829C328.004 64.7624 327.759 64.8632 327.504 64.8632C327.249 64.8632 327.005 64.7624 326.824 64.5829C326.644 64.4035 326.543 64.1601 326.543 63.9063L326.543 50.6633L324.017 53.1769Z" fill="#FFFEF9"/>
<path d="M315.975 88.4078C316.565 88.5178 317.05 88.8128 317.43 89.2928C317.81 89.7728 318 90.3228 318 90.9428C318 91.5028 317.86 91.9978 317.58 92.4278C317.31 92.8478 316.915 93.1778 316.395 93.4178C315.875 93.6578 315.26 93.7778 314.55 93.7778H310.035V83.3078H314.355C315.065 83.3078 315.675 83.4228 316.185 83.6528C316.705 83.8828 317.095 84.2028 317.355 84.6128C317.625 85.0228 317.76 85.4878 317.76 86.0078C317.76 86.6178 317.595 87.1278 317.265 87.5378C316.945 87.9478 316.515 88.2378 315.975 88.4078ZM312.135 87.6278H314.055C314.555 87.6278 314.94 87.5178 315.21 87.2978C315.48 87.0678 315.615 86.7428 315.615 86.3228C315.615 85.9028 315.48 85.5778 315.21 85.3478C314.94 85.1178 314.555 85.0028 314.055 85.0028H312.135V87.6278ZM314.25 92.0678C314.76 92.0678 315.155 91.9478 315.435 91.7078C315.725 91.4678 315.87 91.1278 315.87 90.6878C315.87 90.2378 315.72 89.8878 315.42 89.6378C315.12 89.3778 314.715 89.2478 314.205 89.2478H312.135V92.0678H314.25ZM319.134 89.5928C319.134 88.7528 319.299 88.0078 319.629 87.3578C319.969 86.7078 320.424 86.2078 320.994 85.8578C321.574 85.5078 322.219 85.3328 322.929 85.3328C323.549 85.3328 324.089 85.4578 324.549 85.7078C325.019 85.9578 325.394 86.2728 325.674 86.6528V85.4678H327.789V93.7778H325.674V92.5628C325.404 92.9528 325.029 93.2778 324.549 93.5378C324.079 93.7878 323.534 93.9128 322.914 93.9128C322.214 93.9128 321.574 93.7328 320.994 93.3728C320.424 93.0128 319.969 92.5078 319.629 91.8578C319.299 91.1978 319.134 90.4428 319.134 89.5928ZM325.674 89.6228C325.674 89.1128 325.574 88.6778 325.374 88.3178C325.174 87.9478 324.904 87.6678 324.564 87.4778C324.224 87.2778 323.859 87.1778 323.469 87.1778C323.079 87.1778 322.719 87.2728 322.389 87.4628C322.059 87.6528 321.789 87.9328 321.579 88.3028C321.379 88.6628 321.279 89.0928 321.279 89.5928C321.279 90.0928 321.379 90.5328 321.579 90.9128C321.789 91.2828 322.059 91.5678 322.389 91.7678C322.729 91.9678 323.089 92.0678 323.469 92.0678C323.859 92.0678 324.224 91.9728 324.564 91.7828C324.904 91.5828 325.174 91.3028 325.374 90.9428C325.574 90.5728 325.674 90.1328 325.674 89.6228ZM329.3 89.6228C329.3 88.7628 329.475 88.0128 329.825 87.3728C330.175 86.7228 330.66 86.2228 331.28 85.8728C331.9 85.5128 332.61 85.3328 333.41 85.3328C334.44 85.3328 335.29 85.5928 335.96 86.1128C336.64 86.6228 337.095 87.3428 337.325 88.2728H335.06C334.94 87.9128 334.735 87.6328 334.445 87.4328C334.165 87.2228 333.815 87.1178 333.395 87.1178C332.795 87.1178 332.32 87.3378 331.97 87.7778C331.62 88.2078 331.445 88.8228 331.445 89.6228C331.445 90.4128 331.62 91.0278 331.97 91.4678C332.32 91.8978 332.795 92.1128 333.395 92.1128C334.245 92.1128 334.8 91.7328 335.06 90.9728H337.325C337.095 91.8728 336.64 92.5878 335.96 93.1178C335.28 93.6478 334.43 93.9128 333.41 93.9128C332.61 93.9128 331.9 93.7378 331.28 93.3878C330.66 93.0278 330.175 92.5278 329.825 91.8878C329.475 91.2378 329.3 90.4828 329.3 89.6228ZM343.783 93.7778L340.963 90.2378V93.7778H338.863V82.6778H340.963V88.9928L343.753 85.4678H346.483L342.823 89.6378L346.513 93.7778H343.783Z" fill="#FFFEF9"/>
</g>
<defs>
<filter id="filter0_d_302_26" x="0.6" y="0.6" width="657.475" height="140.627" filterUnits="userSpaceOnUse" color-interpolation-filters="sRGB">
<feFlood flood-opacity="0" result="BackgroundImageFix"/>
<feColorMatrix in="SourceAlpha" type="matrix" values="0 0 0 0 0 0 0 0 0 0 0 0 0 0 0 0 0 0 127 0" result="hardAlpha"/>
<feOffset dx="1" dy="7"/>
<feGaussianBlur stdDeviation="10.7"/>
<feComposite in2="hardAlpha" operator="out"/>
<feColorMatrix type="matrix" values="0 0 0 0 0 0 0 0 0 0 0 0 0 0 0 0 0 0 0.55 0"/>
<feBlend mode="normal" in2="BackgroundImageFix" result="effect1_dropShadow_302_26"/>
<feBlend mode="normal" in="SourceGraphic" in2="effect1_dropShadow_302_26" result="shape"/>
</filter>
</defs>
</svg>
