<svg width="98" height="684" viewBox="0 0 98 684" fill="none" xmlns="http://www.w3.org/2000/svg">
<path d="M2.68359 277C2.68359 340 2.68359 356 2.68359 356C2.68359 356 2.6836 371.5 2.68359 423C55.3254 423 98 390.317 98 350C98 309.683 55.3254 277 2.68359 277Z" fill="#13841E"/>
<path d="M2.83308 652.022C2.39241 664.251 2.44135 675.059 2.83308 684V652.022C5.33159 582.682 23.5692 467.635 84.3051 388H2.83308V652.022Z" fill="#13841E"/>
<path d="M0.781038 47.3263C-0.199318 28.7583 -0.188627 12.5997 0.435615 0L0.781038 47.3263C4.63207 120.265 23.7758 230.384 81.095 308H2.6836L0.781038 47.3263Z" fill="#13841E"/>
<path d="M39.99 356H37.89L33.135 348.815V356H31.035V345.515H33.135L37.89 352.715V345.515H39.99V356ZM49.7903 351.665C49.7903 351.965 49.7703 352.235 49.7303 352.475H43.6553C43.7053 353.075 43.9153 353.545 44.2853 353.885C44.6553 354.225 45.1103 354.395 45.6503 354.395C46.4303 354.395 46.9853 354.06 47.3153 353.39H49.5803C49.3403 354.19 48.8803 354.85 48.2003 355.37C47.5203 355.88 46.6853 356.135 45.6953 356.135C44.8953 356.135 44.1753 355.96 43.5353 355.61C42.9053 355.25 42.4103 354.745 42.0503 354.095C41.7003 353.445 41.5253 352.695 41.5253 351.845C41.5253 350.985 41.7003 350.23 42.0503 349.58C42.4003 348.93 42.8903 348.43 43.5203 348.08C44.1503 347.73 44.8753 347.555 45.6953 347.555C46.4853 347.555 47.1903 347.725 47.8103 348.065C48.4403 348.405 48.9253 348.89 49.2653 349.52C49.6153 350.14 49.7903 350.855 49.7903 351.665ZM47.6153 351.065C47.6053 350.525 47.4103 350.095 47.0303 349.775C46.6503 349.445 46.1853 349.28 45.6353 349.28C45.1153 349.28 44.6753 349.44 44.3153 349.76C43.9653 350.07 43.7503 350.505 43.6703 351.065H47.6153ZM55.9131 356L54.2031 353.42L52.6881 356H50.4381L53.1531 351.83L50.4081 347.69H52.7781L54.4731 350.255L56.0031 347.69H58.2531L55.5231 351.83L58.2831 356H55.9131ZM61.8687 349.415V353.435C61.8687 353.715 61.9337 353.92 62.0637 354.05C62.2037 354.17 62.4337 354.23 62.7537 354.23H63.7287V356H62.4087C60.6387 356 59.7537 355.14 59.7537 353.42V349.415H58.7637V347.69H59.7537V345.635H61.8687V347.69H63.7287V349.415H61.8687Z" fill="#FFFEF9"/>
<path fill-rule="evenodd" clip-rule="evenodd" d="M80.8132 354.379C80.7343 354.464 80.6709 354.568 80.627 354.683C80.5831 354.797 80.5595 354.921 80.5576 355.047C80.5557 355.173 80.5755 355.298 80.6159 355.414C80.6564 355.531 80.7165 355.637 80.7928 355.726C80.8691 355.815 80.96 355.885 81.0601 355.932C81.1601 355.979 81.2673 356.002 81.3752 356C81.4831 355.998 81.5895 355.97 81.6881 355.919C81.7866 355.868 81.8754 355.794 81.9489 355.702L85.4311 351.644L86 350.983L85.4321 350.321L81.95 346.263C81.7985 346.093 81.5956 345.998 81.3849 346C81.1742 346.002 80.9726 346.1 80.8235 346.274C80.6745 346.448 80.5899 346.682 80.5879 346.928C80.586 347.173 80.6669 347.41 80.8132 347.587L82.9239 350.046H71.8036C71.5905 350.046 71.3861 350.145 71.2354 350.321C71.0847 350.496 71 350.734 71 350.983C71 351.231 71.0847 351.469 71.2354 351.645C71.3861 351.82 71.5905 351.919 71.8036 351.919H82.9239L80.8132 354.379Z" fill="#FFFEF9"/>
</svg>
