<svg width="639" height="122" viewBox="0 0 639 122" fill="none" xmlns="http://www.w3.org/2000/svg">
<g filter="url(#filter0_d_302_26)">
<path d="M246.741 117.489C309.741 117.489 325.741 117.489 325.741 117.489C325.741 117.489 341.241 117.489 392.741 117.489C392.741 64.8471 360.058 22.1725 319.741 22.1725C279.424 22.1725 246.741 64.8471 246.741 117.489Z" fill="#13841E"/>
<path d="M621.763 117.339C612.822 117.731 633.992 117.78 621.763 117.339C552.423 114.841 437.376 96.6034 357.741 35.8674L357.741 117.339L621.763 117.339Z" fill="#13841E"/>
<path d="M17.0674 119.391C29.6671 120.015 -1.50061 120.371 17.0674 119.391C90.0066 115.54 200.125 96.3967 277.741 39.0775L277.741 117.489L17.0674 119.391Z" fill="#13841E"/>
<path fill-rule="evenodd" clip-rule="evenodd" d="M322.658 81.8231C322.746 81.7291 322.852 81.6536 322.97 81.6013C323.088 81.549 323.216 81.5209 323.345 81.5186C323.474 81.5164 323.602 81.54 323.722 81.5881C323.842 81.6363 323.95 81.7079 324.042 81.7988C324.133 81.8897 324.205 81.9979 324.254 82.1171C324.302 82.2362 324.326 82.3638 324.323 82.4923C324.321 82.6208 324.293 82.7475 324.24 82.8649C324.188 82.9823 324.112 83.088 324.017 83.1756L319.85 87.3224L319.17 87.9999L318.491 87.3237L314.324 83.1768C314.148 82.9964 314.051 82.7548 314.053 82.5038C314.055 82.2529 314.156 82.0129 314.335 81.8354C314.513 81.6578 314.754 81.5571 315.006 81.5548C315.258 81.5525 315.501 81.6488 315.683 81.8231L318.209 84.3367L318.209 71.0937C318.209 70.8399 318.31 70.5965 318.49 70.417C318.671 70.2375 318.915 70.1367 319.17 70.1367C319.426 70.1367 319.67 70.2375 319.85 70.417C320.031 70.5965 320.132 70.8399 320.132 71.0937L320.132 84.3367L322.658 81.8231Z" fill="#FFFEF9"/>
<path d="M309.99 58H307.89L303.135 50.815V58H301.035V47.515H303.135L307.89 54.715V47.515H309.99V58ZM319.79 53.665C319.79 53.965 319.77 54.235 319.73 54.475H313.655C313.705 55.075 313.915 55.545 314.285 55.885C314.655 56.225 315.11 56.395 315.65 56.395C316.43 56.395 316.985 56.06 317.315 55.39H319.58C319.34 56.19 318.88 56.85 318.2 57.37C317.52 57.88 316.685 58.135 315.695 58.135C314.895 58.135 314.175 57.96 313.535 57.61C312.905 57.25 312.41 56.745 312.05 56.095C311.7 55.445 311.525 54.695 311.525 53.845C311.525 52.985 311.7 52.23 312.05 51.58C312.4 50.93 312.89 50.43 313.52 50.08C314.15 49.73 314.875 49.555 315.695 49.555C316.485 49.555 317.19 49.725 317.81 50.065C318.44 50.405 318.925 50.89 319.265 51.52C319.615 52.14 319.79 52.855 319.79 53.665ZM317.615 53.065C317.605 52.525 317.41 52.095 317.03 51.775C316.65 51.445 316.185 51.28 315.635 51.28C315.115 51.28 314.675 51.44 314.315 51.76C313.965 52.07 313.75 52.505 313.67 53.065H317.615ZM325.913 58L324.203 55.42L322.688 58H320.438L323.153 53.83L320.408 49.69H322.778L324.473 52.255L326.003 49.69H328.253L325.523 53.83L328.283 58H325.913ZM331.869 51.415V55.435C331.869 55.715 331.934 55.92 332.064 56.05C332.204 56.17 332.434 56.23 332.754 56.23H333.729V58H332.409C330.639 58 329.754 57.14 329.754 55.42V51.415H328.764V49.69H329.754V47.635H331.869V49.69H333.729V51.415H331.869Z" fill="#FFFEF9"/>
</g>
<defs>
<filter id="filter0_d_302_26" x="0.3" y="0.472547" width="638.075" height="121.227" filterUnits="userSpaceOnUse" color-interpolation-filters="sRGB">
<feFlood flood-opacity="0" result="BackgroundImageFix"/>
<feColorMatrix in="SourceAlpha" type="matrix" values="0 0 0 0 0 0 0 0 0 0 0 0 0 0 0 0 0 0 127 0" result="hardAlpha"/>
<feOffset dx="1" dy="-10"/>
<feGaussianBlur stdDeviation="5.85"/>
<feComposite in2="hardAlpha" operator="out"/>
<feColorMatrix type="matrix" values="0 0 0 0 0 0 0 0 0 0 0 0 0 0 0 0 0 0 0.55 0"/>
<feBlend mode="normal" in2="BackgroundImageFix" result="effect1_dropShadow_302_26"/>
<feBlend mode="normal" in="SourceGraphic" in2="effect1_dropShadow_302_26" result="shape"/>
</filter>
</defs>
</svg>
