<svg width="135" height="133" viewBox="0 0 135 133" fill="none" xmlns="http://www.w3.org/2000/svg">
<g clip-path="url(#clip0_343_2)">
<path fill-rule="evenodd" clip-rule="evenodd" d="M-40 -13C-40 -19.6274 -34.6274 -25 -28 -25H-12C-5.37258 -25 0 -19.6274 0 -13V9C0 15.6274 5.37258 21 12 21H15C21.6274 21 27 26.3726 27 33V38.5C27 42.0899 29.9101 45 33.5 45C60.8381 45 83 67.1619 83 94.5C83 100.894 87.6497 107 94.0432 107H101C107.627 107 113 112.373 113 119V121C113 127.627 118.373 133 125 133H147C153.627 133 159 138.373 159 145V161C159 167.627 153.627 173 147 173H118C115.239 173 113 175.239 113 178C113 184.627 107.627 190 101 190H18C11.3726 190 6 184.627 6 178V155.069C6 148.766 1.04463 143.689 -4.98323 141.848C-25.2551 135.654 -40 116.799 -40 94.5C-40 92.2395 -39.8485 90.0143 -39.555 87.8342C-38.2751 78.3254 -44.5428 67 -54.1373 67H-68C-74.6274 67 -80 61.6274 -80 55V33C-80 26.3726 -74.6274 21 -68 21H-52C-45.3726 21 -40 15.6274 -40 9V-13ZM44.5 101C54.7173 101 63 93.165 63 83.5C63 73.835 54.7173 66 44.5 66C34.2827 66 26 73.835 26 83.5C26 93.165 34.2827 101 44.5 101Z" fill="#0E5E24"/>
</g>
<defs>
<clipPath id="clip0_343_2">
<rect width="1119" height="224" fill="white" transform="translate(-269 -19)"/>
</clipPath>
</defs>
</svg>
