<svg width="28" height="26" viewBox="0 0 28 26" fill="none" xmlns="http://www.w3.org/2000/svg">
<rect width="27.4226" height="25.6534" fill="white"/>
<path d="M13.7201 3.60751C17.2176 3.63056 20.0801 6.31134 20.1008 9.58341C20.1101 11.1412 19.4734 12.6416 18.3247 13.7694L19.5368 14.9033C21.0093 13.4723 21.8266 11.5602 21.8147 9.57394C21.7884 5.42931 18.1627 2.03353 13.7322 2.00417C11.6043 1.98344 9.55364 2.74937 8.02613 4.13541L9.23814 5.26917C10.4427 4.18877 12.0514 3.59234 13.7201 3.60751ZM19.2439 16.8969L17.53 15.2936L13.0314 11.0851L10.7663 8.96622L9.43572 7.72148L2.03863 0.801666H0.819336V1.92846L6.08395 6.85342C5.71792 7.73555 5.53094 8.67379 5.5326 9.62004V11.2234H7.24652V9.62004C7.24606 9.11654 7.31275 8.61497 7.44506 8.12693L8.96209 9.54608C8.96092 9.58584 8.96032 9.62561 8.96027 9.66538V13.9608L9.23284 14.2154C9.82753 14.7687 10.299 15.4268 10.62 16.1517C10.941 16.8766 11.1051 17.6538 11.1028 18.4384H12.8167C12.8224 16.5354 12.0569 14.7011 10.6743 13.3051V11.1477L17.53 17.561V18.8727C17.5291 19.714 17.1714 20.5206 16.5354 21.1155C15.8995 21.7104 15.0373 22.045 14.1379 22.0459H12.8167V23.6493H14.1379C15.4392 23.6478 16.691 23.1821 17.638 22.3472C18.5851 21.5122 19.1561 20.3709 19.2347 19.1557L25.3236 24.8518H26.5281V23.7111L19.2439 16.8969Z" fill="black"/>
<path d="M13.6376 5.21085C12.4537 5.22012 11.3179 5.6498 10.46 6.4129L11.6715 7.54626C12.2112 7.08107 12.9164 6.82015 13.6503 6.81419H13.6732C14.4687 6.81419 15.2316 7.10981 15.794 7.636C16.3565 8.1622 16.6725 8.87588 16.6725 9.62004H18.3864C18.3865 9.0382 18.2634 8.46211 18.0243 7.92498C17.7852 7.38785 17.4348 6.9003 16.9934 6.49043C16.5519 6.08056 16.0281 5.75648 15.4522 5.53687C14.8762 5.31725 14.2595 5.20645 13.6376 5.21085Z" fill="black"/>
</svg>
