<svg width="98" height="684" viewBox="0 0 98 684" fill="none" xmlns="http://www.w3.org/2000/svg">
<path d="M2.68359 277C2.68359 340 2.68359 356 2.68359 356C2.68359 356 2.6836 371.5 2.68359 423C55.3254 423 98 390.317 98 350C98 309.683 55.3254 277 2.68359 277Z" fill="#13841E"/>
<path d="M2.83308 652.022C2.39241 664.251 2.44135 675.059 2.83308 684V652.022C5.33159 582.682 23.5692 467.635 84.3051 388H2.83308V652.022Z" fill="#13841E"/>
<path d="M0.781038 47.3263C-0.199318 28.7583 -0.188627 12.5997 0.435615 0L0.781038 47.3263C4.63207 120.265 23.7758 230.384 81.095 308H2.6836L0.781038 47.3263Z" fill="#13841E"/>
</svg>
