<?xml version="1.0" encoding="utf-8"?>
<svg viewBox="-0.703 62.458 691.88 113.124" fill="none" xmlns="http://www.w3.org/2000/svg">
  <defs>
    <filter id="filter0_d_216_3" x="0" y="0.200001" width="762.8" height="163.1" filterUnits="userSpaceOnUse" color-interpolation-filters="sRGB">
      <feFlood flood-opacity="0" result="BackgroundImageFix"/>
      <feColorMatrix in="SourceAlpha" type="matrix" values="0 0 0 0 0 0 0 0 0 0 0 0 0 0 0 0 0 0 127 0" result="hardAlpha"/>
      <feOffset dx="40" dy="2"/>
      <feGaussianBlur stdDeviation="15.4"/>
      <feComposite in2="hardAlpha" operator="out"/>
      <feColorMatrix type="matrix" values="0 0 0 0 0 0 0 0 0 0 0 0 0 0 0 0 0 0 0.39 0"/>
      <feBlend mode="normal" in2="BackgroundImageFix" result="effect1_dropShadow_216_3"/>
      <feBlend mode="normal" in="SourceGraphic" in2="effect1_dropShadow_216_3" result="shape"/>
    </filter>
    <filter id="filter1_d_216_3" x="30.9132" y="38.5289" width="144.887" height="49.8738" filterUnits="userSpaceOnUse" color-interpolation-filters="sRGB">
      <feFlood flood-opacity="0" result="BackgroundImageFix"/>
      <feColorMatrix in="SourceAlpha" type="matrix" values="0 0 0 0 0 0 0 0 0 0 0 0 0 0 0 0 0 0 127 0" result="hardAlpha"/>
      <feOffset dx="1" dy="5"/>
      <feGaussianBlur stdDeviation="6.55"/>
      <feComposite in2="hardAlpha" operator="out"/>
      <feColorMatrix type="matrix" values="0 0 0 0 0 0 0 0 0 0 0 0 0 0 0 0 0 0 0.25 0"/>
      <feBlend mode="normal" in2="BackgroundImageFix" result="effect1_dropShadow_216_3"/>
      <feBlend mode="normal" in="SourceGraphic" in2="effect1_dropShadow_216_3" result="shape"/>
    </filter>
  </defs>
  <g filter="url(#filter0_d_216_3)" transform="matrix(1, 0, 0, 1, -21.974401473999023, 29.90960121154785)">
    <path d="M 21.364 132.942 L 21.364 105.442 L 702.364 32.442 L 21.364 132.942 Z" fill="#FCDC2A"/>
    <path d="M 21.364 105.442 L 21.364 31.442 L 713.364 31.442 L 21.668 105.409 L 21.364 105.442 Z" fill="#114232"/>
  </g>
  <g filter="url(#filter1_d_216_3)" transform="matrix(1, 0, 0, 1, -0.6104010343551636, 32.35120391845703)">
    <path d="M47.3574 70H43.0132V48.2939H58.2104V52.6382H47.3574V56.9824H53.8662V61.3267H47.3574V70ZM73.8013 70H72.8022L71.1978 67.7749C70.8042 68.1281 70.3854 68.4611 69.9414 68.7739C69.5075 69.0767 69.0483 69.3441 68.564 69.5762C68.0796 69.7982 67.5801 69.9748 67.0654 70.106C66.5609 70.2371 66.0462 70.3027 65.5215 70.3027C64.3812 70.3027 63.3065 70.111 62.2974 69.7275C61.2983 69.3441 60.4204 68.7891 59.6636 68.0625C58.9168 67.3258 58.3265 66.4277 57.8926 65.3682C57.4587 64.3086 57.2417 63.1027 57.2417 61.7505C57.2417 60.4891 57.4587 59.3337 57.8926 58.2842C58.3265 57.2246 58.9168 56.3164 59.6636 55.5596C60.4204 54.8027 61.2983 54.2174 62.2974 53.8037C63.3065 53.3799 64.3812 53.168 65.5215 53.168C66.0462 53.168 66.5659 53.2336 67.0806 53.3647C67.5952 53.4959 68.0947 53.6776 68.5791 53.9097C69.0635 54.1418 69.5226 54.4142 69.9565 54.727C70.4006 55.0399 70.8143 55.3779 71.1978 55.7412L72.8022 53.8188H73.8013V70ZM69.6387 61.7505C69.6387 61.1854 69.5277 60.6405 69.3057 60.1157C69.0937 59.5809 68.8011 59.1117 68.4277 58.708C68.0544 58.2943 67.6154 57.9663 67.1108 57.7241C66.6164 57.4718 66.0866 57.3457 65.5215 57.3457C64.9564 57.3457 64.4215 57.4416 63.917 57.6333C63.4225 57.825 62.9886 58.1076 62.6152 58.481C62.252 58.8543 61.9644 59.3185 61.7524 59.8735C61.5405 60.4185 61.4346 61.0441 61.4346 61.7505C61.4346 62.4569 61.5405 63.0876 61.7524 63.6426C61.9644 64.1875 62.252 64.6466 62.6152 65.02C62.9886 65.3934 63.4225 65.6759 63.917 65.8677C64.4215 66.0594 64.9564 66.1553 65.5215 66.1553C66.0866 66.1553 66.6164 66.0342 67.1108 65.792C67.6154 65.5397 68.0544 65.2117 68.4277 64.8081C68.8011 64.3944 69.0937 63.9251 69.3057 63.4004C69.5277 62.8656 69.6387 62.3156 69.6387 61.7505ZM85.8652 70H76.4199V65.8828H85.8652C86.1478 65.8828 86.39 65.7819 86.5918 65.5801C86.7936 65.3783 86.8945 65.1361 86.8945 64.8535C86.8945 64.5609 86.7936 64.3691 86.5918 64.2783C86.39 64.1875 86.1478 64.1421 85.8652 64.1421H81.5664C80.8499 64.1421 80.1789 64.0059 79.5532 63.7334C78.9276 63.4609 78.3826 63.0926 77.9185 62.6284C77.4543 62.1541 77.0859 61.6042 76.8135 60.9785C76.5511 60.3529 76.4199 59.6818 76.4199 58.9653C76.4199 58.2489 76.5511 57.5778 76.8135 56.9521C77.0859 56.3265 77.4543 55.7816 77.9185 55.3174C78.3826 54.8532 78.9276 54.4899 79.5532 54.2275C80.1789 53.9551 80.8499 53.8188 81.5664 53.8188H89.937V57.936H81.5664C81.2839 57.936 81.0417 58.0369 80.8398 58.2388C80.638 58.4406 80.5371 58.6828 80.5371 58.9653C80.5371 59.258 80.638 59.5103 80.8398 59.7222C81.0417 59.924 81.2839 60.0249 81.5664 60.0249H85.8652C86.5716 60.0249 87.2376 60.146 87.8633 60.3882C88.4889 60.6203 89.0339 60.9482 89.498 61.3721C89.9622 61.7959 90.3306 62.3055 90.603 62.9009C90.8755 63.4963 91.0117 64.1471 91.0117 64.8535C91.0117 65.57 90.8755 66.241 90.603 66.8667C90.3306 67.4823 89.9622 68.0272 89.498 68.5015C89.0339 68.9657 88.4889 69.334 87.8633 69.6064C87.2376 69.8688 86.5716 70 85.8652 70ZM98.0957 49.3838C98.0957 49.7673 98.02 50.1255 97.8686 50.4585C97.7274 50.7915 97.5306 51.0841 97.2783 51.3364C97.026 51.5786 96.7283 51.7754 96.3853 51.9268C96.0522 52.068 95.694 52.1387 95.3105 52.1387C94.9271 52.1387 94.5638 52.068 94.2207 51.9268C93.8877 51.7754 93.595 51.5786 93.3428 51.3364C93.1006 51.0841 92.9038 50.7915 92.7524 50.4585C92.6112 50.1255 92.5405 49.7673 92.5405 49.3838C92.5405 49.0104 92.6112 48.6572 92.7524 48.3242C92.9038 47.9811 93.1006 47.6885 93.3428 47.4463C93.595 47.194 93.8877 46.9972 94.2207 46.856C94.5638 46.7046 94.9271 46.6289 95.3105 46.6289C95.694 46.6289 96.0522 46.7046 96.3853 46.856C96.7283 46.9972 97.026 47.194 97.2783 47.4463C97.5306 47.6885 97.7274 47.9811 97.8686 48.3242C98.02 48.6572 98.0957 49.0104 98.0957 49.3838ZM97.3843 70H93.2217V53.7886H97.3843V70ZM104.71 70H100.548V47.3403H104.71V70ZM112.748 49.3838C112.748 49.7673 112.672 50.1255 112.521 50.4585C112.38 50.7915 112.183 51.0841 111.931 51.3364C111.678 51.5786 111.381 51.7754 111.038 51.9268C110.705 52.068 110.346 52.1387 109.963 52.1387C109.579 52.1387 109.216 52.068 108.873 51.9268C108.54 51.7754 108.247 51.5786 107.995 51.3364C107.753 51.0841 107.556 50.7915 107.405 50.4585C107.264 50.1255 107.193 49.7673 107.193 49.3838C107.193 49.0104 107.264 48.6572 107.405 48.3242C107.556 47.9811 107.753 47.6885 107.995 47.4463C108.247 47.194 108.54 46.9972 108.873 46.856C109.216 46.7046 109.579 46.6289 109.963 46.6289C110.346 46.6289 110.705 46.7046 111.038 46.856C111.381 46.9972 111.678 47.194 111.931 47.4463C112.183 47.6885 112.38 47.9811 112.521 48.3242C112.672 48.6572 112.748 49.0104 112.748 49.3838ZM112.037 70H107.874V53.7886H112.037V70ZM123.329 70C122.33 70 121.391 69.8133 120.513 69.4399C119.635 69.0565 118.863 68.5368 118.197 67.8809C117.541 67.2148 117.022 66.4429 116.638 65.5649C116.265 64.687 116.078 63.7485 116.078 62.7495V57.936H114.065V53.8188H116.078V47.3403H120.195V53.8188H126.462V57.936H120.195V62.7495C120.195 63.1834 120.276 63.5921 120.437 63.9756C120.599 64.349 120.821 64.6769 121.104 64.9595C121.386 65.242 121.719 65.4691 122.103 65.6406C122.486 65.8021 122.895 65.8828 123.329 65.8828H126.462V70H123.329ZM144.49 70H143.491L141.886 67.7749C141.493 68.1281 141.074 68.4611 140.63 68.7739C140.196 69.0767 139.737 69.3441 139.252 69.5762C138.768 69.7982 138.269 69.9748 137.754 70.106C137.249 70.2371 136.735 70.3027 136.21 70.3027C135.07 70.3027 133.995 70.111 132.986 69.7275C131.987 69.3441 131.109 68.7891 130.352 68.0625C129.605 67.3258 129.015 66.4277 128.581 65.3682C128.147 64.3086 127.93 63.1027 127.93 61.7505C127.93 60.4891 128.147 59.3337 128.581 58.2842C129.015 57.2246 129.605 56.3164 130.352 55.5596C131.109 54.8027 131.987 54.2174 132.986 53.8037C133.995 53.3799 135.07 53.168 136.21 53.168C136.735 53.168 137.254 53.2336 137.769 53.3647C138.284 53.4959 138.783 53.6776 139.268 53.9097C139.752 54.1418 140.211 54.4142 140.645 54.727C141.089 55.0399 141.503 55.3779 141.886 55.7412L143.491 53.8188H144.49V70ZM140.327 61.7505C140.327 61.1854 140.216 60.6405 139.994 60.1157C139.782 59.5809 139.49 59.1117 139.116 58.708C138.743 58.2943 138.304 57.9663 137.799 57.7241C137.305 57.4718 136.775 57.3457 136.21 57.3457C135.645 57.3457 135.11 57.4416 134.605 57.6333C134.111 57.825 133.677 58.1076 133.304 58.481C132.94 58.8543 132.653 59.3185 132.441 59.8735C132.229 60.4185 132.123 61.0441 132.123 61.7505C132.123 62.4569 132.229 63.0876 132.441 63.6426C132.653 64.1875 132.94 64.6466 133.304 65.02C133.677 65.3934 134.111 65.6759 134.605 65.8677C135.11 66.0594 135.645 66.1553 136.21 66.1553C136.775 66.1553 137.305 66.0342 137.799 65.792C138.304 65.5397 138.743 65.2117 139.116 64.8081C139.49 64.3944 139.782 63.9251 139.994 63.4004C140.216 62.8656 140.327 62.3156 140.327 61.7505ZM156.554 70H147.108V65.8828H156.554C156.836 65.8828 157.078 65.7819 157.28 65.5801C157.482 65.3783 157.583 65.1361 157.583 64.8535C157.583 64.5609 157.482 64.3691 157.28 64.2783C157.078 64.1875 156.836 64.1421 156.554 64.1421H152.255C151.538 64.1421 150.867 64.0059 150.242 63.7334C149.616 63.4609 149.071 63.0926 148.607 62.6284C148.143 62.1541 147.774 61.6042 147.502 60.9785C147.24 60.3529 147.108 59.6818 147.108 58.9653C147.108 58.2489 147.24 57.5778 147.502 56.9521C147.774 56.3265 148.143 55.7816 148.607 55.3174C149.071 54.8532 149.616 54.4899 150.242 54.2275C150.867 53.9551 151.538 53.8188 152.255 53.8188H160.625V57.936H152.255C151.972 57.936 151.73 58.0369 151.528 58.2388C151.326 58.4406 151.226 58.6828 151.226 58.9653C151.226 59.258 151.326 59.5103 151.528 59.7222C151.73 59.924 151.972 60.0249 152.255 60.0249H156.554C157.26 60.0249 157.926 60.146 158.552 60.3882C159.177 60.6203 159.722 60.9482 160.187 61.3721C160.651 61.7959 161.019 62.3055 161.291 62.9009C161.564 63.4963 161.7 64.1471 161.7 64.8535C161.7 65.57 161.564 66.241 161.291 66.8667C161.019 67.4823 160.651 68.0272 160.187 68.5015C159.722 68.9657 159.177 69.334 158.552 69.6064C157.926 69.8688 157.26 70 156.554 70Z" fill="white"/>
  </g>
</svg>